 <svg width="25" height="24" viewBox="0 0 25 24" fill="white" xmlns="http://www.w3.org/2000/svg">
<path d="M11.5424 21C6.54843 21 2.5 16.9706 2.5 12C2.5 7.02944 6.54843 3 11.5424 3C14.0719 3 16.3589 4.03377 18 5.7" stroke="#0A5A8C" stroke-width="1.5" stroke-linecap="round"/>
<path d="M12.5 11.5C12.5 12.3284 11.8284 13 11 13C10.1716 13 9.5 12.3284 9.5 11.5C9.5 10.6716 10.1716 10 11 10C11.8284 10 12.5 10.6716 12.5 11.5Z" fill="#0A5A8C"/>
<path d="M7.5 6.98126L11.5 11.9578" stroke="#0A5A8C" stroke-width="1.5" stroke-linecap="round"/>
<path d="M13.7511 17.7461L13.9504 17.5483C14.2815 17.2197 14.4677 16.7726 14.4677 16.3062V14.3265C14.4677 12.9036 15.6212 11.75 17.0442 11.75C18.4672 11.75 19.6208 12.9036 19.6208 14.3265V16.3062C19.6208 16.7726 19.8069 17.2197 20.138 17.5483L20.3374 17.7461C20.4958 17.9034 20.3845 18.1736 20.1613 18.1736H13.9272C13.704 18.1736 13.5927 17.9034 13.7511 17.7461L13.2227 17.2138L13.7511 17.7461Z" stroke="#0A5A8C" stroke-width="1.5"/>
<path d="M18.7074 20.6215C18.3498 20.9626 17.7384 21.1874 17.0441 21.1874C16.3499 21.1874 15.7384 20.9626 15.3809 20.6215" stroke="#0A5A8C" stroke-width="1.5" stroke-linecap="round"/>
</svg>
