<svg width="40" height="40" viewBox="0 0 40 40" fill="none" xmlns="http://www.w3.org/2000/svg">
<path fill-rule="evenodd" clip-rule="evenodd" d="M27.5 19.8C26.3 16.7 23.3 14.6 20 14.5C16.7 14.6 13.7 16.7 12.5 19.8V20.1C13.7 23.2 16.6 25.3 20 25.4C23.3 25.3 26.3 23.2 27.5 20.1V19.8ZM17 20C17 18.3 18.3 17 20 17C21.7 17 23 18.3 23 20C23 21.7 21.7 23 20 23C18.3 23 17 21.7 17 20ZM18 20C18 21.1 18.9 22 20 22C21.1 22 22 21.1 22 20C22 18.9 21.1 18 20 18C18.9 18 18 18.9 18 20ZM13.5 20C14.6 22.5 17.3 24.5 20 24.5C22.6 24.5 25.4 22.5 26.5 20C25.4 17.5 22.7 15.5 20 15.5C17.3 15.5 14.5 17.5 13.5 20Z" fill="#525252"/>
</svg>
